<?xml version="1.0" encoding="UTF-8" standalone="no"?>
<svg
   version="1.1"
   id="Layer_1"
   x="0px"
   y="0px"
   viewBox="0 0 30.000001 28.823243"
   xml:space="preserve"
   sodipodi:docname="closed-icon.svg"
   width="30"
   height="28.823242"
   inkscape:version="1.4.2 (f4327f4, 2025-05-13)"
   xmlns:inkscape="http://www.inkscape.org/namespaces/inkscape"
   xmlns:sodipodi="http://sodipodi.sourceforge.net/DTD/sodipodi-0.dtd"
   xmlns="http://www.w3.org/2000/svg"
   xmlns:svg="http://www.w3.org/2000/svg"><defs
     id="defs1" /><sodipodi:namedview
     id="namedview1"
     pagecolor="#ffffff"
     bordercolor="#000000"
     borderopacity="0.25"
     inkscape:showpageshadow="2"
     inkscape:pageopacity="0.0"
     inkscape:pagecheckerboard="0"
     inkscape:deskcolor="#d1d1d1"
     showguides="false"
     inkscape:zoom="3.2737592"
     inkscape:cx="71.630192"
     inkscape:cy="60.022741"
     inkscape:window-width="1920"
     inkscape:window-height="991"
     inkscape:window-x="-9"
     inkscape:window-y="-9"
     inkscape:window-maximized="1"
     inkscape:current-layer="g1" /><style
     type="text/css"
     id="style1">.st0{fill-rule:evenodd;clip-rule:evenodd;}</style><g
     id="g1"
     style="fill:#d71920;fill-opacity:1"><path
       class="st0"
       d="M 2.2992556,16.036179 5.53214,15.406206 12.596139,4.7479422 C 12.254293,4.3767953 12.010117,3.9079783 11.905122,3.3781173 11.756175,2.611406 11.931981,1.8569035 12.337313,1.2537899 12.745086,0.65067629 13.3775,0.20139325 14.144212,0.05244616 c 0.766711,-0.14894709 1.521213,0.02685931 2.124327,0.43219075 0.603114,0.40777318 1.052397,1.04262959 1.201344,1.80689909 0.148947,0.7691531 -0.02686,1.5236555 -0.432191,2.1267692 l -0.03907,0.053719 c -0.02686,0.036626 -0.05372,0.073253 -0.08058,0.1074373 l 5.989627,7.4375875 2.307459,-0.451725 c 1.535864,-0.300336 3.039985,0.712993 3.33788,2.248857 L 29.94725,20.9612 c 0.300336,1.535864 -0.712993,3.039986 -2.248857,3.33788 L 4.7849628,28.772376 C 3.2490985,29.072712 1.7449771,28.059383 1.4470829,26.523519 L 0.05284042,19.3765 C -0.24749552,17.840636 0.76339131,16.336515 2.2992556,16.036179 Z m 5.1911724,5.166755 -1.6310927,0.317428 -0.219758,-1.125649 c -0.063486,-0.327196 -0.1220878,-0.52742 -0.1709229,-0.603114 -0.048835,-0.07325 -0.1342966,-0.100112 -0.2515008,-0.07814 -0.1318548,0.02686 -0.2075493,0.09034 -0.2221998,0.197782 -0.017092,0.107437 0.00733,0.324753 0.070811,0.651949 l 0.5884631,3.010684 c 0.061044,0.314987 0.119646,0.517653 0.1758064,0.607998 0.053719,0.0879 0.1440636,0.119646 0.2685931,0.09767 0.1196461,-0.02442 0.190457,-0.08546 0.2075493,-0.190457 0.017092,-0.102554 -0.00733,-0.334521 -0.078136,-0.691017 l -0.1587141,-0.815546 1.6310927,-0.317429 0.048835,0.253943 c 0.1318548,0.671483 0.1782482,1.157392 0.1416219,1.455286 -0.036626,0.300336 -0.190457,0.586022 -0.4614918,0.857057 -0.2734769,0.27348 -0.6372985,0.45417 -1.0963485,0.542073 -0.4761424,0.09279 -0.8863573,0.08058 -1.2306449,-0.03663 C 4.7581035,25.21718 4.5041609,25.009631 4.343005,24.714178 4.1818492,24.416284 4.0377856,23.949909 3.9132561,23.315052 L 3.544551,21.42025 C 3.454206,20.953875 3.4004874,20.59982 3.3858368,20.360528 c -0.014651,-0.239292 0.034185,-0.483468 0.1465054,-0.730085 0.109879,-0.246617 0.2905689,-0.45905 0.5371862,-0.634856 0.2466173,-0.178249 0.5469533,-0.300336 0.9010078,-0.368706 0.4785841,-0.09279 0.8936826,-0.07569 1.2428537,0.05616 0.349171,0.129413 0.6006718,0.329637 0.7545024,0.59823 0.1538306,0.268593 0.2881272,0.703226 0.4077732,1.308781 z m 1.6603939,-3.262186 1.0133281,5.191173 0.981586,-0.190457 0.253942,1.296572 -2.6126777,0.510327 -1.2672712,-6.487745 z m 5.7137081,2.832437 c 0.126971,0.651948 0.202665,1.115882 0.224641,1.3918 0.02442,0.278361 -0.01953,0.54207 -0.131855,0.798454 -0.11232,0.253943 -0.290569,0.468818 -0.529861,0.63974 -0.241733,0.170923 -0.539628,0.293011 -0.89124,0.36138 -0.334521,0.06593 -0.644624,0.06593 -0.935193,0.0049 -0.288127,-0.06104 -0.537186,-0.188015 -0.742294,-0.383356 -0.207549,-0.19534 -0.351612,-0.424865 -0.434632,-0.683691 -0.08302,-0.261268 -0.190457,-0.725202 -0.31987,-1.394243 L 10.88691,20.39717 c -0.126972,-0.651948 -0.202666,-1.115882 -0.224642,-1.3918 -0.02442,-0.278361 0.01953,-0.54207 0.131855,-0.798455 0.112321,-0.253942 0.288127,-0.468817 0.529861,-0.639739 0.241734,-0.170923 0.539628,-0.293011 0.891241,-0.36138 0.33452,-0.06593 0.644623,-0.06593 0.935192,-0.0049 0.288127,0.06104 0.537186,0.188015 0.742294,0.383356 0.207549,0.19534 0.351613,0.424865 0.434632,0.683691 0.08302,0.261268 0.190457,0.725202 0.31987,1.394243 z m -2.046192,-1.811783 c -0.0586,-0.300336 -0.11232,-0.490793 -0.161155,-0.568929 -0.04884,-0.07814 -0.119646,-0.107437 -0.217317,-0.0879 -0.08302,0.01709 -0.13918,0.06349 -0.170923,0.13918 -0.03174,0.07569 -0.01465,0.280802 0.05128,0.615322 l 0.590905,3.027777 c 0.07325,0.376031 0.134297,0.605556 0.178248,0.686134 0.04639,0.08302 0.122088,0.114762 0.227084,0.09279 0.107437,-0.02198 0.168481,-0.08546 0.178248,-0.192898 0.0098,-0.107438 -0.02198,-0.351613 -0.09767,-0.732527 z m 5.74301,-0.813105 -1.511447,0.295453 -0.09279,-0.478584 c -0.04395,-0.224642 -0.09034,-0.363822 -0.141622,-0.417541 -0.05128,-0.05372 -0.119646,-0.07081 -0.209991,-0.05372 -0.09767,0.01953 -0.163597,0.07569 -0.197782,0.168481 -0.03418,0.09279 -0.03418,0.2222 -0.0024,0.388239 0.04151,0.214875 0.102554,0.373589 0.18069,0.471259 0.07569,0.09767 0.256385,0.200224 0.537187,0.307661 0.808221,0.30522 1.33564,0.586022 1.579815,0.835081 0.244176,0.249059 0.427308,0.691016 0.551837,1.325873 0.09034,0.461492 0.104996,0.813105 0.04151,1.052397 -0.06104,0.239292 -0.227083,0.461491 -0.498118,0.666599 -0.268593,0.207549 -0.600672,0.349171 -0.998678,0.427307 -0.434633,0.08546 -0.822872,0.07081 -1.164718,-0.03907 -0.341845,-0.109879 -0.583579,-0.288127 -0.732526,-0.534744 -0.146506,-0.246618 -0.268593,-0.612881 -0.36138,-1.09879 l -0.08302,-0.424866 1.511447,-0.295452 0.153831,0.788687 c 0.04639,0.244175 0.100112,0.395564 0.15383,0.456608 0.05616,0.06104 0.136739,0.08058 0.246618,0.0586 0.107437,-0.02198 0.180689,-0.08058 0.214874,-0.18069 0.03663,-0.09767 0.03663,-0.234408 0.0024,-0.405331 -0.07325,-0.380914 -0.173365,-0.622648 -0.295453,-0.717876 -0.126971,-0.09767 -0.419982,-0.244176 -0.87659,-0.441958 -0.456608,-0.197782 -0.764269,-0.349171 -0.920542,-0.449283 -0.156272,-0.100112 -0.297894,-0.251501 -0.427307,-0.456609 -0.129413,-0.205107 -0.227083,-0.478584 -0.295452,-0.822871 -0.09767,-0.495677 -0.107438,-0.871707 -0.0293,-1.125649 0.07814,-0.253943 0.239293,-0.471259 0.488352,-0.654391 0.246617,-0.183132 0.564045,-0.312545 0.949843,-0.385797 0.422423,-0.08302 0.796012,-0.08058 1.120765,0.0024 0.324754,0.08302 0.556721,0.224642 0.693459,0.419982 0.13918,0.195341 0.258826,0.551837 0.358938,1.067048 z m 0.266151,-2.095026 2.715232,-0.529861 0.253943,1.296572 -1.08414,0.212433 0.241734,1.23797 1.013329,-0.197782 0.239292,1.230645 -1.013329,0.197782 0.27836,1.425985 1.194019,-0.234408 0.253942,1.296572 -2.825111,0.549395 z m 3.289045,-0.642182 1.218436,-0.23685 c 0.783803,-0.153831 1.323431,-0.219758 1.616442,-0.197782 0.290569,0.02198 0.527419,0.102554 0.703226,0.246617 0.178248,0.141622 0.305219,0.314987 0.380914,0.517652 0.07569,0.202666 0.175806,0.610439 0.295452,1.225762 l 0.4444,2.270832 c 0.114762,0.581138 0.163597,0.976703 0.148947,1.18181 -0.01465,0.207549 -0.07569,0.378472 -0.185574,0.515211 -0.109879,0.136738 -0.258826,0.244175 -0.441958,0.327195 -0.183131,0.08058 -0.471258,0.161156 -0.859498,0.23685 l -2.051074,0.400448 z m 1.845967,0.788687 0.832639,4.273073 c 0.231967,-0.04395 0.363821,-0.122088 0.398006,-0.229525 0.03418,-0.109879 0.0098,-0.378472 -0.07569,-0.813105 l -0.493235,-2.522333 c -0.0586,-0.293011 -0.102554,-0.481026 -0.136738,-0.561604 -0.03419,-0.08058 -0.08546,-0.131855 -0.158715,-0.158714 -0.06837,-0.02686 -0.190457,-0.02198 -0.366263,0.01221 z M 7.8347156,14.956923 21.05438,12.378429 15.545779,5.5366293 c -0.102553,0.031743 -0.207549,0.058602 -0.314986,0.080578 -0.407773,0.080578 -0.810663,0.065927 -1.191577,-0.021976 z M 14.095377,3.8347256 c 0.01465,0.00733 0.03174,0.017092 0.04639,0.026859 0.227083,0.119646 0.495676,0.1660394 0.769153,0.1123208 0.302778,-0.058602 0.551837,-0.2270833 0.717876,-0.4566083 l 0.02442,-0.036626 C 15.819256,3.2340537 15.890067,2.9239507 15.829023,2.6089643 15.767979,2.291536 15.584848,2.0327099 15.340672,1.8666706 15.094055,1.7006312 14.78151,1.6273785 14.466523,1.6908642 c -0.317428,0.061044 -0.576254,0.2441755 -0.742293,0.4883511 -0.16604,0.2466173 -0.239292,0.559162 -0.175807,0.8741485 0.06104,0.3149865 0.244176,0.5762543 0.493235,0.7422937 v 0.00244 c 0.01465,0.014651 0.03419,0.026859 0.05372,0.036626 z"
       id="path1"
       style="fill:#d71920;fill-opacity:1;stroke-width:0.244176"
       inkscape:label="path1" /></g></svg>
