<?xml version="1.0" standalone="no"?>
<!DOCTYPE svg PUBLIC "-//W3C//DTD SVG 20010904//EN"
 "http://www.w3.org/TR/2001/REC-SVG-20010904/DTD/svg10.dtd">
<svg version="1.0" xmlns="http://www.w3.org/2000/svg"
 width="588.000000pt" height="588.000000pt" viewBox="0 0 588.000000 588.000000"
 preserveAspectRatio="xMidYMid meet">
<metadata>
Created by potrace 1.14, written by Peter Selinger 2001-2017
</metadata>
<g transform="translate(0.000000,588.000000) scale(0.100000,-0.100000)"
fill="#000000" stroke="none">
<path d="M3050 5447 c-3 -3 -18 -8 -33 -11 -87 -16 -178 -90 -222 -181 -64
-132 -51 -233 64 -467 67 -138 76 -161 85 -219 5 -29 -17 -69 -38 -69 -21 0
-56 46 -163 215 -121 190 -130 202 -210 283 -89 89 -172 121 -264 100 -35 -8
-118 -51 -149 -77 -50 -43 -116 -109 -135 -135 -11 -16 -25 -33 -30 -40 -24
-26 -96 -147 -133 -221 -62 -123 -139 -329 -167 -445 -39 -162 -57 -240 -60
-260 -2 -14 -11 -61 -20 -105 -8 -44 -18 -98 -20 -120 -3 -22 -7 -51 -10 -65
-5 -28 -16 -102 -20 -140 -2 -14 -6 -50 -10 -80 -3 -30 -8 -68 -10 -85 -3 -16
-7 -61 -10 -100 -4 -38 -8 -76 -11 -83 -2 -7 1 -22 6 -33 10 -17 22 -19 133
-19 67 0 127 4 133 8 16 10 22 47 40 227 4 41 14 125 19 151 2 12 6 46 10 75
18 152 25 199 35 254 5 28 12 66 15 85 12 72 53 244 71 300 3 8 5 16 5 17 0 2
15 45 34 97 84 233 216 433 303 460 20 7 49 -5 86 -34 19 -15 136 -184 136
-196 0 -18 133 -204 176 -247 131 -129 297 -137 420 -21 47 44 90 109 100 151
4 15 10 33 14 38 10 13 9 184 0 210 -5 11 -14 40 -21 65 -13 44 -37 94 -112
233 -41 74 -46 116 -19 140 46 41 155 6 253 -80 83 -74 200 -256 258 -401 46
-117 54 -136 57 -147 19 -59 66 -226 70 -249 3 -16 6 -32 8 -35 2 -3 7 -22 10
-41 7 -44 14 -77 20 -98 3 -9 7 -37 10 -62 4 -25 8 -56 10 -70 26 -153 44
-386 51 -644 3 -125 7 -171 17 -177 22 -15 244 -11 256 4 10 12 9 321 -2 457
-13 164 -19 226 -31 310 -3 19 -7 55 -10 80 -2 25 -11 81 -19 125 -9 44 -17
91 -20 105 -25 139 -98 399 -146 515 -41 101 -78 182 -111 243 -37 70 -128
211 -153 238 -126 137 -228 214 -331 249 -48 17 -205 33 -215 22z"/>
<path d="M4419 3384 c-13 -15 -18 -246 -7 -275 6 -14 26 -17 134 -18 160 -2
193 -17 230 -101 10 -24 12 -21 32 43 52 165 46 282 -17 332 -34 26 -35 27
-208 30 -121 2 -155 0 -164 -11z"/>
<path d="M2455 3312 c-76 -1 -142 -7 -145 -11 -3 -5 -4 -51 -3 -103 2 -165 -3
-148 48 -148 29 0 45 -5 46 -12 5 -47 3 -931 -2 -939 -3 -5 -29 -11 -57 -12
-29 -2 -55 -7 -58 -10 -12 -11 -7 -228 5 -240 13 -13 357 -17 384 -5 12 6 17
21 17 53 0 25 4 45 8 45 5 0 24 -14 43 -31 29 -26 70 -50 89 -51 3 0 12 -4 20
-8 43 -23 192 -27 269 -8 97 23 217 109 236 168 3 11 10 20 14 20 11 0 48 86
62 146 14 62 20 254 9 297 -5 17 -11 45 -14 61 -7 37 -53 132 -80 164 -48 57
-84 86 -143 113 -80 39 -101 43 -208 44 -78 0 -98 -4 -152 -29 -34 -15 -72
-39 -84 -52 -48 -51 -49 -45 -49 256 0 228 -3 282 -14 286 -20 8 -84 9 -241 6z
m532 -747 c60 -13 118 -97 129 -187 3 -29 8 -54 9 -56 8 -9 -26 -117 -46 -147
-41 -61 -135 -95 -207 -76 -88 24 -141 103 -147 218 -4 90 17 155 64 202 52
52 109 65 198 46z"/>
<path d="M335 3301 c-8 -15 -10 -230 -1 -238 4 -5 38 -10 74 -13 74 -6 77 -11
46 -74 -8 -16 -14 -35 -14 -42 0 -7 -7 -25 -15 -41 -8 -15 -67 -165 -131 -333
-64 -168 -129 -340 -146 -383 -32 -83 -35 -87 -95 -92 -21 -1 -41 -3 -45 -4
-14 -2 -9 -239 4 -247 16 -10 508 -12 529 -3 13 7 15 27 15 123 -1 63 -5 118
-9 123 -5 4 -36 9 -69 10 -34 1 -64 7 -68 13 -9 15 33 130 52 144 10 7 88 11
227 10 239 -1 228 2 252 -84 22 -81 19 -87 -55 -83 -44 1 -58 -2 -65 -15 -11
-21 -11 -223 0 -237 9 -12 584 -13 596 -2 4 4 8 57 8 117 2 127 -2 134 -73
137 -25 1 -51 8 -58 15 -7 7 -35 76 -64 153 -28 77 -67 181 -86 230 -18 50
-90 240 -158 423 -68 184 -133 343 -143 354 -37 43 -71 48 -292 48 -120 0
-212 -4 -216 -9z m367 -478 c6 -16 12 -30 13 -33 1 -3 5 -12 8 -20 4 -8 25
-67 48 -130 23 -63 45 -120 50 -126 6 -7 4 -16 -6 -24 -17 -14 -241 -18 -255
-4 -9 9 93 325 113 352 13 17 16 16 29 -15z"/>
<path d="M1513 2842 c-29 -4 -32 -21 -30 -152 l2 -105 40 -3 c22 -2 42 -8 45
-13 9 -14 6 -466 -3 -476 -5 -4 -25 -8 -45 -8 l-37 0 -1 -127 -1 -126 26 -4
c50 -6 491 -2 498 6 8 8 15 199 8 233 -4 18 -13 22 -53 25 l-47 3 -3 110 c-3
126 9 172 60 224 70 72 207 113 305 91 26 -6 35 -4 42 9 9 18 13 275 4 304 -4
15 -14 18 -61 16 -156 -6 -290 -86 -364 -217 -17 -29 -33 -51 -36 -48 -3 3 -5
58 -5 122 0 119 -9 150 -42 138 -20 -8 -135 -10 -135 -3 0 3 -19 3 -42 -1 -24
-3 -56 -3 -73 0 -16 3 -40 4 -52 2z"/>
<path d="M3667 2844 c-3 -4 -43 -6 -89 -5 -46 0 -89 -3 -96 -8 -10 -6 -13 -38
-13 -126 1 -65 3 -120 5 -122 2 -2 21 -6 42 -7 22 -2 44 -4 50 -5 7 -1 19 -25
29 -53 22 -69 134 -399 142 -418 4 -8 7 -18 8 -22 2 -5 3 -9 5 -10 1 -2 3 -10
5 -18 13 -59 69 -188 88 -202 14 -11 45 -18 82 -20 l60 -3 -1 -32 c-1 -17 -13
-57 -27 -88 -21 -45 -34 -59 -64 -71 -62 -26 -105 -14 -210 61 -17 12 -37 -8
-137 -144 -19 -25 -23 -38 -16 -51 13 -25 107 -85 171 -110 61 -25 205 -35
265 -19 129 33 212 130 288 339 13 36 41 115 64 175 22 61 81 225 132 365 113
316 112 314 122 321 5 3 27 6 49 7 23 1 45 5 50 8 5 3 8 43 7 90 -2 46 0 84 4
84 4 0 3 13 -2 29 -4 16 -6 32 -2 35 3 3 1 7 -4 8 -47 8 -141 10 -267 5 -31
-1 -57 1 -57 4 0 4 -16 3 -34 -1 -19 -4 -37 -5 -40 -3 -6 6 -137 5 -144 -1 -5
-6 -7 -245 -1 -250 2 -2 24 -6 49 -9 25 -3 46 -6 46 -6 1 -1 -14 -49 -33 -108
-19 -60 -51 -160 -70 -223 -37 -124 -46 -140 -74 -140 -19 0 -35 21 -43 61 -3
13 -24 94 -47 179 -56 210 -59 223 -52 233 3 4 12 6 20 3 35 -14 43 12 43 135
0 135 3 132 -117 130 -7 0 -46 -1 -87 -2 -41 0 -79 2 -84 5 -5 3 -12 3 -15 0z"/>
<path d="M4946 2829 c-165 -56 -258 -234 -206 -390 32 -93 117 -152 274 -190
140 -33 184 -49 215 -78 33 -31 33 -57 -1 -88 -16 -14 -36 -18 -92 -18 -94 1
-151 28 -190 89 -15 25 -35 47 -44 51 -22 8 -197 4 -212 -5 -15 -9 -17 -347
-2 -362 5 -5 53 -7 108 -6 l99 3 3 30 c5 56 8 57 66 25 83 -47 136 -60 261
-64 91 -4 156 11 223 50 93 53 131 114 139 221 5 65 3 78 -22 129 -40 81 -85
109 -268 165 -84 25 -162 51 -174 57 -11 6 -22 10 -24 7 -3 -2 -14 4 -26 13
-26 20 -38 74 -23 101 23 43 147 52 210 14 32 -19 70 -73 70 -100 0 -11 7 -24
16 -27 20 -8 198 -8 218 0 14 5 16 31 16 185 0 209 8 195 -115 192 -83 -1 -89
-4 -91 -36 -4 -63 -2 -61 -39 -28 -71 62 -106 73 -235 77 -74 2 -108 -2 -154
-17z"/>
<path d="M5747 2839 c-38 -10 -58 -28 -73 -65 -29 -68 25 -144 101 -144 45 0
105 53 105 93 0 31 -15 74 -33 91 -20 21 -70 33 -100 25z m60 -25 c22 -6 53
-58 53 -89 0 -9 -14 -30 -30 -47 -27 -26 -36 -30 -68 -25 -44 8 -72 38 -72 79
0 66 49 100 117 82z"/>
<path d="M5750 2792 c-23 -7 -26 -16 -22 -66 4 -49 16 -60 26 -23 6 22 6 22
24 2 19 -21 42 -31 42 -17 0 4 -5 13 -11 19 -8 8 -7 16 2 31 10 16 10 23 1 35
-15 18 -41 26 -62 19z m40 -37 c0 -8 -9 -15 -20 -15 -11 0 -20 7 -20 15 0 8 9
15 20 15 11 0 20 -7 20 -15z"/>
<path d="M1517 1574 c-1 -1 -33 -4 -72 -8 -58 -5 -114 -16 -200 -39 -5 -2 -20
-8 -32 -15 -12 -7 -26 -12 -32 -12 -6 0 -34 -15 -63 -32 -133 -82 -196 -181
-204 -321 -7 -139 59 -261 196 -365 19 -15 37 -29 40 -32 6 -6 31 -20 112 -63
97 -51 197 -88 393 -146 28 -9 53 -14 113 -26 13 -2 31 -6 40 -9 9 -3 34 -8
56 -12 21 -3 48 -8 60 -10 49 -10 83 -16 111 -19 17 -2 50 -6 75 -9 191 -26
279 -30 575 -31 250 0 409 6 515 19 19 2 59 7 89 10 67 8 178 24 211 31 14 3
41 8 60 11 19 3 55 10 80 16 25 5 54 12 65 14 49 10 67 14 183 48 450 131 738
335 801 569 16 62 8 185 -17 239 -35 78 -167 186 -191 156 -29 -35 -131 -198
-131 -208 0 -7 8 -20 18 -29 109 -95 -2 -240 -283 -371 -44 -20 -91 -40 -105
-45 -14 -4 -38 -13 -55 -21 -32 -14 -194 -63 -235 -70 -14 -3 -32 -7 -40 -10
-8 -3 -26 -8 -40 -10 -14 -3 -56 -11 -95 -19 -98 -19 -146 -27 -255 -40 -36
-4 -73 -9 -83 -11 -93 -17 -634 -24 -807 -11 -520 42 -934 164 -1118 331 -85
78 -76 165 25 222 43 24 59 28 143 42 56 9 350 8 410 -1 94 -14 192 -33 265
-50 32 -8 110 -30 135 -39 8 -3 53 -18 100 -33 47 -16 159 -58 249 -95 132
-55 172 -67 205 -64 50 5 85 29 109 75 39 73 1 150 -91 185 -26 9 -69 27 -97
40 -104 47 -374 143 -445 159 -8 1 -40 10 -70 19 -60 17 -61 17 -205 46 -55
12 -113 22 -130 24 -128 15 -171 18 -248 20 -48 1 -89 1 -90 0z"/>
</g>
</svg>
